<svg id="Layer_1" data-name="Layer 1" xmlns="http://www.w3.org/2000/svg" viewBox="0 0 423.04 70.11"><defs><style>.cls-1{fill:#004563;}.cls-2{fill:#499abb;}.cls-3{font-size:49px;font-family:CopperplateGothic-Bold, Copperplate Gothic Bold;font-weight:700;}.cls-3,.cls-4{fill:#004d6d;}.cls-4{font-size:22px;font-family:Corbel;letter-spacing:0.17em;}</style></defs><polygon class="cls-1" points="0 65.95 28.54 65.95 58.23 15.1 53.28 5.54 35.39 5.54 0 65.95"/><polygon class="cls-1" points="146.9 65.95 118.36 65.95 88.67 15.1 93.62 5.54 111.5 5.54 146.9 65.95"/><polygon class="cls-2" points="63.17 22.75 38.06 65.95 59.75 65.95 73.45 41.1 63.17 22.75"/><polygon class="cls-2" points="84.48 22.75 109.6 65.95 87.91 65.95 74.21 41.1 84.48 22.75"/><path class="cls-1" d="M209.41,342.42a7.23,7.23,0,1,1-7.23-7.26A7.25,7.25,0,0,1,209.41,342.42Z" transform="translate(-128.35 -330.76)"/><text class="cls-3" transform="translate(162.88 40.84)">MAHMUD</text><text class="cls-4" transform="translate(163.48 64.85)">Land &amp; Builders Ltd.</text></svg>