<?xml version="1.0" encoding="UTF-8"?>
<svg id="Layer_1" data-name="Layer 1" xmlns="http://www.w3.org/2000/svg" viewBox="0 0 216 46.06">
  <defs>
    <style>
      .cls-1 {
        fill: #fff;
      }

      .cls-2 {
        fill: #4999ba;
      }

      .cls-3 {
        fill: #004562;
      }

      .cls-4 {
        letter-spacing: .15em;
      }

      .cls-5 {
        font-family: Arial-BoldMT, Arial;
        font-size: 35.51px;
        font-weight: 700;
      }

      .cls-5, .cls-6 {
        fill: #004d6d;
      }

      .cls-6 {
        font-family: FranklinGothic-Book, 'Franklin Gothic Book';
        font-size: 12.05px;
      }

      .cls-7 {
        letter-spacing: .16em;
      }

      .cls-8 {
        letter-spacing: .15em;
      }

      .cls-9 {
        fill: #1d1d1b;
      }
    </style>
  </defs>
  <rect class="cls-1" y=".63" width="216" height="43.2"/>
  <g>
    <polygon class="cls-3" points="2.03 42.08 15.71 42.08 29.93 10.74 27.56 4.85 18.99 4.85 2.03 42.08"/>
    <polygon class="cls-3" points="72.42 42.08 58.75 42.08 44.52 10.74 46.89 4.85 55.46 4.85 72.42 42.08"/>
    <polygon class="cls-2" points="32.3 15.45 20.27 42.08 30.66 42.08 37.23 26.76 32.3 15.45"/>
    <polygon class="cls-2" points="42.52 15.45 54.55 42.08 44.16 42.08 37.59 26.76 42.52 15.45"/>
    <path class="cls-9" d="M40.87,8.62c0,2.47-1.55,4.48-3.46,4.48s-3.46-2-3.46-4.48,1.55-4.48,3.46-4.48,3.46,2,3.46,4.48Z"/>
  </g>
  <text class="cls-5" transform="translate(74.27 30.46) scale(.87 1)"><tspan x="0" y="0">MAHMUD</tspan></text>
  <text class="cls-6" transform="translate(75.47 42.08)"><tspan class="cls-4" x="0" y="0">Land &amp; Builde</tspan><tspan class="cls-7" x="95.39" y="0">r</tspan><tspan class="cls-8" x="101.27" y="0">s Ltd.</tspan></text>
</svg>