<?xml version="1.0" encoding="UTF-8"?>
<svg id="Layer_1" data-name="Layer 1" xmlns="http://www.w3.org/2000/svg" viewBox="0 0 40 21.56">
  <defs>
    <style>
      .cls-1 {
        fill: #4999ba;
      }

      .cls-2 {
        fill: #004562;
      }

      .cls-3 {
        fill: #1d1d1b;
      }
    </style>
  </defs>
  <polygon class="cls-2" points="0 21.56 7.77 21.56 15.85 3.75 14.51 .4 9.64 .4 0 21.56"/>
  <polygon class="cls-2" points="40 21.56 32.23 21.56 24.15 3.75 25.49 .4 30.36 .4 40 21.56"/>
  <polygon class="cls-1" points="17.2 6.43 10.37 21.56 16.27 21.56 20 12.85 17.2 6.43"/>
  <polygon class="cls-1" points="23.01 6.43 29.85 21.56 23.94 21.56 20.21 12.85 23.01 6.43"/>
  <path class="cls-3" d="M22.07,2.55c0,1.4-.88,2.55-1.97,2.55s-1.97-1.14-1.97-2.55,.88-2.55,1.97-2.55,1.97,1.14,1.97,2.55Z"/>
</svg>